PathFileType	4	(x/y/z)	A01_FAST_T0024.trc
DataRate	CameraRate	NumFrames	NumMarkers	Units	OrigDataRate	OrigDataStartFrame	OrigNumFrames
240	240	11	48	mm	240	254	290
Frame#	Time	TOP_HEAD			R_AC			L_AC			R_ASIS			L_ASIS			R_PSIS			L_PSIS			SACRAL			L_IC			R_IC			L_GT			R_GT			R_LAT_KNEE			R_MED_KNEE			L_MED_KNEE			L_LAT_KNEE			R_TOE			L_TOE			R_1ST_MET			L_1ST_MET			L_5TH_MET			R_5TH_MET			R_LAT_ANK			R_MED_ANK			L_MED_ANK			L_LAT_ANK			L_HEEL_SUP			R_HEEL_SUP			L_HEEL_LAT			R_HEEL_LAT			L_HEEL_MED			R_HEEL_MED			R_LL_PROX_POST			R_LL_PROX_ANT			R_LL_DIST_ANT			R_LL_DIST_POST			R_THIGH_PROX_POST			R_THIGH_PROX_ANT			R_THIGH_DIST_ANT			R_THIGH_DIST_POST			L_PROS_PROX_ANT			L_PROS_PROX_POST			L_PROS_DIST_POST			L_PROS_DIST_ANT			L_THIGH_PROX_ANT			L_THIGH_PROX_POST			L_THIGH_DIST_POST			L_THIGH_DIST_ANT			
		X1	Y1	Z1	X2	Y2	Z2	X3	Y3	Z3	X4	Y4	Z4	X5	Y5	Z5	X6	Y6	Z6	X7	Y7	Z7	X8	Y8	Z8	X9	Y9	Z9	X10	Y10	Z10	X11	Y11	Z11	X12	Y12	Z12	X13	Y13	Z13	X14	Y14	Z14	X15	Y15	Z15	X16	Y16	Z16	X17	Y17	Z17	X18	Y18	Z18	X19	Y19	Z19	X20	Y20	Z20	X21	Y21	Z21	X22	Y22	Z22	X23	Y23	Z23	X24	Y24	Z24	X25	Y25	Z25	X26	Y26	Z26	X27	Y27	Z27	X28	Y28	Z28	X29	Y29	Z29	X30	Y30	Z30	X31	Y31	Z31	X32	Y32	Z32	X33	Y33	Z33	X34	Y34	Z34	X35	Y35	Z35	X36	Y36	Z36	X37	Y37	Z37	X38	Y38	Z38	X39	Y39	Z39	X40	Y40	Z40	X41	Y41	Z41	X42	Y42	Z42	X43	Y43	Z43	X44	Y44	Z44	X45	Y45	Z45	X46	Y46	Z46	X47	Y47	Z47	X48	Y48	Z48	

254	1.0578	1022.1	1750.9	276.26	788.71	1590.9	542.8	738.71	1563	86.393	749.61	1107.6	542.42	769.7	1050.8	190.72	541.12	1122.7	402.08	557.31	1110.7	273.79	531.2	1088.4	335.78	738.43	1172.6	143.88	724.72	1225.4	544.23	718.02	970	145.97	669.66	1002.7	575.58	580.07	600.79	499.18	614.73	596.9	369.22	879.07	589.26	362.05	852.16	595.39	204.68	670.34	65.256	391.18	1173.9	167.14	234.75	589.98	54.917	345.2	1107.1	115.18	289.93	1077	103.01	163.49	562.2	48.464	479.24	466.72	146.49	452.69	475.81	151.53	350.69	959.79	160.02	280	931.7	145.93	214.23	869.76	66.27	253.4	365.06	139.27	396.66	885.57	42.353	222.22	365.46	114.47	431.42	897.35	42.776	284.67	366.09	111.27	370.84	454.2	444.56	489.96	520.75	422.36	510	511.1	349.68	490.24	456.86	362.09	478.6	600.64	870.07	546.04	672.58	873.77	558	657.99	784.47	545.15	589.94	782.67	532.32	919.91	529.4	212.95	867.43	513.26	202.87	879.22	451.25	208.42	928.25	473.52	217.38	827.55	851.88	191.22	763.86	834.88	161.49	796.2	767.12	177.03	854.61	783.72	202.41
255	1.062	1028.1	1749.9	276	794.77	1590.1	542.51	744.31	1562.3	86.287	755.46	1106.9	542.04	776.24	1049.5	190.37	547.17	1121.9	401.27	563.7	1109.7	273.09	537.41	1087.6	335.02	744.74	1171.8	143.55	730.62	1224.6	543.75	724.44	968.59	145.61	675.12	1002.2	575.2	582.9	601.03	498.98	617.65	596.84	369.03	885.11	588.15	362.74	858.2	593.57	205.29	670.35	65.228	391.21	1189.1	172.48	236.2	590.14	54.851	345.18	1123.4	119.08	291.46	1093.8	106.04	164.93	562.39	48.5	479.24	467.35	147.16	452.59	476.57	152.18	350.6	975.23	160.51	281.25	947.45	145.78	215.46	887.25	64.651	254.63	365.71	140.37	396.49	903.66	41.043	223.56	366.01	115.58	431.27	915.4	41.887	286.02	366.61	112.36	370.73	456.19	445.43	489.66	522.61	422.93	509.81	512.63	350.27	490.11	458.48	362.94	478.4	605.25	870.17	545.67	677.24	873.45	557.65	662.12	784.25	544.79	594	782.9	532.06	927.38	529.01	213.7	875.23	511.72	203.62	888.37	449.97	209.22	936.91	473.3	218.23	833.61	850.22	190.98	769.94	833.21	161.21	802.18	765.46	176.96	860.56	782.06	202.42
256	1.0662	1034.1	1748.9	275.72	800.84	1589.2	542.22	749.9	1561.5	86.182	761.31	1106.1	541.64	782.8	1048.1	190	553.21	1121.1	400.45	570.09	1108.5	272.37	543.63	1086.6	334.25	751.02	1170.9	143.21	736.51	1223.6	543.25	730.89	967.11	145.24	680.62	1001.7	574.81	585.8	601.24	498.78	620.64	596.76	368.84	891.21	587.01	363.46	864.31	591.74	205.94	670.35	65.201	391.23	1203.9	177.75	237.67	590.3	54.789	345.17	1139.4	122.98	293	1110.1	109.1	166.4	562.56	48.528	479.24	468	147.82	452.5	477.34	152.81	350.51	990.35	161.08	282.52	962.89	145.76	216.7	904.39	63.246	255.87	366.35	141.47	396.34	921.36	39.95	224.92	366.56	116.68	431.13	933.04	41.197	287.39	367.13	113.46	370.63	458.24	446.29	489.37	524.52	423.48	509.63	514.2	350.85	489.99	460.14	363.79	478.2	609.91	870.24	545.3	681.94	873.09	557.3	666.29	783.99	544.45	598.13	783.09	531.81	934.83	528.6	214.47	883.04	510.21	204.39	897.46	448.74	210.05	945.52	473.06	219.11	839.73	848.5	190.72	776.08	831.49	160.91	808.24	763.74	176.88	866.58	780.37	202.41
257	1.0704	1040.1	1747.8	275.44	806.93	1588.3	541.94	755.49	1560.7	86.077	767.16	1105.2	541.24	789.37	1046.6	189.62	559.24	1120.2	399.6	576.47	1107.2	271.65	549.86	1085.5	333.47	757.27	1170	142.86	742.4	1222.5	542.74	737.35	965.55	144.85	686.14	1001.1	574.41	588.78	601.42	498.57	623.71	596.64	368.65	897.35	585.85	364.2	870.51	589.92	206.61	670.36	65.174	391.26	1218.3	182.92	239.17	590.46	54.728	345.15	1154.8	126.85	294.56	1126	112.17	167.87	562.74	48.549	479.24	468.67	148.47	452.43	478.1	153.45	350.44	1005.1	161.73	283.8	977.99	145.83	217.96	921.13	62.035	257.13	367.01	142.58	396.2	938.66	39.051	226.28	367.12	117.78	431	950.25	40.68	288.77	367.65	114.56	370.53	460.36	447.14	489.1	526.48	424.01	509.46	515.82	351.42	489.86	461.85	364.63	478.01	614.63	870.28	544.94	686.7	872.71	556.96	670.52	783.71	544.1	602.31	783.25	531.55	942.29	528.16	215.27	890.85	508.72	205.19	906.49	447.54	210.9	954.08	472.8	220.01	845.91	846.75	190.43	782.29	829.7	160.6	814.38	761.98	176.79	872.67	778.64	202.41
258	1.0745	1046.1	1746.7	275.16	813.05	1587.3	541.65	761.09	1559.8	85.969	773	1104.4	540.82	795.96	1045.1	189.22	565.28	1119.2	398.74	582.86	1105.8	270.91	556.09	1084.3	332.68	763.5	1169	142.51	748.28	1221.4	542.2	743.84	963.93	144.45	691.68	1000.5	574.01	591.84	601.57	498.37	626.86	596.48	368.47	903.56	584.66	364.96	876.79	588.11	207.31	670.36	65.147	391.28	1232.3	187.94	240.69	590.6	54.67	345.13	1169.8	130.65	296.13	1141.5	115.22	169.36	562.91	48.564	479.26	469.35	149.12	452.37	478.87	154.08	350.38	1019.6	162.42	285.09	992.74	145.98	219.22	937.46	60.994	258.39	367.68	143.68	396.08	955.51	38.32	227.63	367.69	118.88	430.88	967.02	40.311	290.14	368.18	115.67	370.45	462.54	447.98	488.83	528.52	424.52	509.29	517.49	351.96	489.75	463.62	365.46	477.84	619.41	870.28	544.57	691.5	872.29	556.63	674.8	783.39	543.77	606.55	783.37	531.28	949.75	527.68	216.1	898.67	507.25	206.01	915.48	446.37	211.77	962.59	472.52	220.94	852.17	844.97	190.13	788.57	827.87	160.27	820.61	760.17	176.71	878.85	776.89	202.4
259	1.0787	1052.2	1745.5	274.86	819.19	1586.3	541.35	766.71	1558.8	85.855	778.85	1103.5	540.4	802.57	1043.5	188.82	571.31	1118.2	397.87	589.24	1104.4	270.15	562.34	1083.1	331.88	769.71	1167.9	142.15	754.15	1220.3	541.65	750.36	962.26	144.04	697.25	999.88	573.59	594.97	601.68	498.17	630.1	596.29	368.3	909.83	583.46	365.74	883.17	586.32	208.03	670.36	65.121	391.31	1245.8	192.79	242.22	590.75	54.614	345.11	1184.4	134.34	297.71	1156.5	118.22	170.86	563.08	48.573	479.27	470.06	149.76	452.32	479.65	154.71	350.33	1033.6	163.13	286.39	1007.1	146.19	220.49	953.36	60.102	259.65	368.35	144.79	395.99	971.91	37.733	228.99	368.26	119.98	430.78	983.3	40.062	291.51	368.71	116.8	370.37	464.78	448.82	488.58	530.61	425.01	509.14	519.2	352.5	489.64	465.44	366.28	477.68	624.25	870.26	544.2	696.35	871.85	556.3	679.14	783.04	543.44	610.85	783.45	531.01	957.23	527.18	216.96	906.51	505.81	206.84	924.41	445.24	212.65	971.06	472.22	221.89	858.5	843.17	189.82	794.94	825.99	159.93	826.93	758.34	176.64	885.12	775.13	202.39
260	1.0829	1058.2	1744.3	274.55	825.36	1585.1	541.06	772.34	1557.8	85.734	784.7	1102.5	539.97	809.21	1041.9	188.4	577.36	1117.1	396.97	595.63	1102.9	269.38	568.6	1081.8	331.07	775.9	1166.8	141.79	760.03	1219.1	541.08	756.91	960.53	143.62	702.85	999.21	573.16	598.19	601.75	497.96	633.43	596.06	368.13	916.18	582.24	366.53	889.65	584.55	208.78	670.36	65.094	391.35	1258.9	197.42	243.77	590.89	54.561	345.09	1198.5	137.88	299.29	1171	121.12	172.36	563.25	48.576	479.3	470.79	150.4	452.29	480.44	155.34	350.3	1047.3	163.85	287.7	1021.1	146.43	221.76	968.79	59.337	260.91	369.05	145.9	395.91	987.82	37.265	230.34	368.85	121.09	430.7	999.09	39.907	292.88	369.25	117.93	370.3	467.11	449.64	488.34	532.78	425.48	509	520.97	353.01	489.54	467.32	367.1	477.54	629.15	870.19	543.83	701.25	871.37	555.98	683.53	782.66	543.12	615.22	783.49	530.73	964.73	526.65	217.83	914.35	504.41	207.7	933.29	444.14	213.55	979.48	471.9	222.86	864.92	841.36	189.51	801.4	824.1	159.59	833.36	756.48	176.58	891.5	773.36	202.4
261	1.0871	1064.3	1743	274.24	831.56	1584	540.75	777.99	1556.7	85.602	790.55	1101.5	539.54	815.89	1040.3	187.98	583.42	1115.9	396.05	602.03	1101.3	268.58	574.88	1080.4	330.24	782.07	1165.6	141.41	765.9	1217.8	540.5	763.51	958.76	143.19	708.47	998.52	572.73	601.5	601.8	497.76	636.85	595.79	367.97	922.62	581.02	367.33	896.25	582.82	209.54	670.36	65.067	391.38	1271.6	201.8	245.34	591.02	54.51	345.07	1212.1	141.24	300.87	1185.1	123.9	173.86	563.42	48.576	479.32	471.56	151.04	452.27	481.24	155.97	350.28	1060.6	164.55	289	1034.7	146.69	223.03	983.74	58.678	262.17	369.76	147.03	395.85	1003.2	36.893	231.68	369.46	122.2	430.63	1014.4	39.822	294.25	369.8	119.09	370.24	469.51	450.45	488.11	535.01	425.93	508.87	522.8	353.51	489.45	469.27	367.91	477.42	634.11	870.1	543.46	706.2	870.87	555.66	687.98	782.25	542.81	619.66	783.49	530.44	972.26	526.09	218.73	922.21	503.03	208.56	942.12	443.06	214.46	987.87	471.54	223.84	871.44	839.55	189.2	807.95	822.18	159.26	839.9	754.62	176.53	897.97	771.61	202.42
262	1.0913	1070.3	1741.8	273.91	837.8	1582.8	540.45	783.67	1555.5	85.457	796.42	1100.6	539.1	822.61	1038.7	187.56	589.5	1114.7	395.12	608.45	1099.6	267.77	581.19	1078.9	329.4	788.24	1164.4	141.03	771.78	1216.5	539.91	770.15	956.95	142.76	714.12	997.8	572.29	604.91	601.8	497.57	640.38	595.49	367.83	929.14	579.79	368.13	902.95	581.12	210.32	670.36	65.039	391.41	1283.9	205.89	246.92	591.15	54.461	345.05	1225.3	144.39	302.44	1198.7	126.52	175.36	563.6	48.571	479.36	472.35	151.68	452.26	482.06	156.61	350.28	1073.5	165.2	290.31	1047.9	146.94	224.29	998.2	58.105	263.42	370.49	148.17	395.82	1018.1	36.592	233.01	370.08	123.33	430.58	1029.1	39.783	295.6	370.37	120.27	370.19	471.99	451.25	487.9	537.32	426.36	508.75	524.69	354	489.37	471.28	368.71	477.31	639.14	869.97	543.08	711.21	870.35	555.36	692.5	781.81	542.52	624.17	783.45	530.14	979.82	525.49	219.64	930.09	501.68	209.44	950.89	442	215.38	996.22	471.15	224.84	878.05	837.74	188.9	814.62	820.26	158.93	846.56	752.76	176.51	904.56	769.87	202.46
263	1.0954	1076.4	1740.5	273.57	844.07	1581.5	540.13	789.39	1554.3	85.295	802.31	1099.5	538.66	829.38	1037	187.13	595.61	1113.4	394.16	614.88	1097.9	266.93	587.52	1077.4	328.54	794.4	1163.1	140.64	777.68	1215.2	539.3	776.85	955.12	142.32	719.8	997.05	571.84	608.41	601.78	497.38	644.01	595.14	367.7	935.76	578.56	368.93	909.77	579.46	211.1	670.36	65.01	391.45	1295.8	209.66	248.51	591.28	54.414	345.03	1237.9	147.3	304.01	1211.8	128.95	176.85	563.77	48.563	479.39	473.18	152.32	452.27	482.9	157.25	350.3	1086	165.79	291.61	1060.7	147.16	225.56	1012.1	57.599	264.68	371.25	149.33	395.81	1032.4	36.341	234.33	370.72	124.47	430.55	1043.3	39.767	296.95	370.95	121.48	370.14	474.56	452.05	487.7	539.72	426.77	508.65	526.64	354.47	489.31	473.36	369.51	477.22	644.23	869.81	542.7	716.26	869.79	555.07	697.07	781.34	542.23	628.75	783.37	529.83	987.41	524.86	220.55	938	500.36	210.32	959.62	440.96	216.3	1004.6	470.72	225.84	884.77	835.96	188.62	821.38	818.34	158.63	853.33	750.91	176.52	911.27	768.15	202.52
264	1.0996	1082.6	1739.1	273.21	850.39	1580.2	539.8	795.16	1553.1	85.112	808.22	1098.5	538.22	836.2	1035.3	186.7	601.75	1112.1	393.19	621.34	1096.1	266.08	593.88	1075.8	327.66	800.57	1161.8	140.25	783.58	1213.8	538.69	783.61	953.26	141.89	725.51	996.28	571.38	612.01	601.72	497.19	647.75	594.75	367.58	942.48	577.34	369.73	916.72	577.84	211.88	670.36	64.98	391.49	1307.2	213.07	250.11	591.41	54.368	345.01	1250.2	149.92	305.57	1224.4	131.16	178.35	563.95	48.554	479.44	474.04	152.96	452.29	483.76	157.89	350.33	1098	166.3	292.91	1073	147.35	226.82	1025.5	57.144	265.94	372.04	150.52	395.83	1046.2	36.121	235.66	371.39	125.64	430.54	1056.9	39.756	298.3	371.56	122.72	370.11	477.22	452.83	487.52	542.19	427.16	508.56	528.66	354.93	489.25	475.53	370.3	477.15	649.38	869.62	542.32	721.38	869.22	554.78	701.72	780.84	541.96	633.4	783.24	529.52	995.05	524.19	221.47	945.92	499.07	211.2	968.28	439.94	217.23	1012.8	470.24	226.85	891.59	834.21	188.36	828.26	816.44	158.34	860.23	749.09	176.55	918.09	766.47	202.62
